<?xml version="1.0" encoding="UTF-8"?>
<!-- Created with Inkscape (http://www.inkscape.org/) -->
<svg width="238" height="300" version="1.1" viewBox="0 0 238 300" xml:space="preserve" xmlns="http://www.w3.org/2000/svg" xmlns:cc="http://creativecommons.org/ns#" xmlns:dc="http://purl.org/dc/elements/1.1/" xmlns:rdf="http://www.w3.org/1999/02/22-rdf-syntax-ns#"><metadata><rdf:RDF><cc:Work rdf:about=""><dc:format>image/svg+xml</dc:format><dc:type rdf:resource="http://purl.org/dc/dcmitype/StillImage"/><dc:title/></cc:Work></rdf:RDF></metadata><defs><clipPath id="clipPath78"><path d="m70.762 250.62v-94.739s0.122-8.823 10.637-17.767c10.514-8.943 33.236-20.425 33.236-20.425s11.523-6.808 14.141-10.998c2.618 4.19 14.14 10.998 14.14 10.998s22.721 11.482 33.236 20.425c10.515 8.944 10.635 17.767 10.635 17.767v94.739c-17.148 1.853-36.929 2.914-58.011 2.914-21.084 0-40.865-1.061-58.014-2.914m46.332-128.77-0.136 0.082-0.142 0.072c-0.223 0.112-22.335 11.328-32.285 19.792-8.245 7.013-8.89 13.549-8.934 14.19v90.271c16.399 1.6 34.681 2.442 53.179 2.442 18.496 0 36.778-0.842 53.177-2.442v-90.271c-0.044-0.641-0.689-7.177-8.933-14.19-9.962-8.473-32.063-19.68-32.284-19.792l-0.143-0.072-0.137-0.082c-2.071-1.224-7.565-4.586-11.68-8.151-4.118 3.565-9.61 6.927-11.682 8.151m30.535 6.007c7.341 4.025 18.099 10.276 24.138 15.411 7.452 6.339 8.191 12.136 8.253 12.795v88.436c-10.206 0.954-21.164 1.614-32.391 1.967zm-70.098 116.64v-88.436c0.062-0.659 0.801-6.456 8.253-12.795 6.039-5.135 16.798-11.386 24.137-15.411v118.61c-11.227-0.353-22.184-1.013-32.39-1.967"/></clipPath><clipPath id="clipPath86"><path d="m70.763 193.38h116.02v-91.114h-116.02z"/></clipPath><clipPath id="clipPath102"><path d="M 0,310.484 H 436.478 V 0 H 0 Z"/></clipPath><linearGradient id="linearGradient236" x2="1" gradientTransform="matrix(0 -118.61 -118.61 0 332.11 246.47)" gradientUnits="userSpaceOnUse"><stop stop-color="#e10217" offset="0"/><stop stop-color="#e10217" offset=".063492"/><stop stop-color="#be172e" offset=".55291"/><stop stop-color="#912233" offset=".94709"/><stop stop-color="#912233" offset="1"/></linearGradient><clipPath id="clipPath246"><path d="M 0,310.484 H 436.478 V 0 H 0 Z"/></clipPath><clipPath id="clipPath262"><path d="m274.1 250.62v-94.739s0.119-8.823 10.635-17.767c10.515-8.943 33.236-20.425 33.236-20.425s11.522-6.808 14.14-10.998c2.619 4.19 14.141 10.998 14.141 10.998s22.721 11.482 33.236 20.425c10.515 8.944 10.636 17.767 10.636 17.767v94.739c-17.148 1.853-36.929 2.914-58.013 2.914-21.082 0-40.863-1.061-58.011-2.914m46.331-128.77-0.137 0.082-0.143 0.072c-0.221 0.112-22.333 11.328-32.284 19.792-8.245 7.013-8.889 13.549-8.933 14.19v90.271c16.4 1.6 34.68 2.442 53.177 2.442 18.498 0 36.779-0.842 53.178-2.442v-90.271c-0.043-0.641-0.688-7.177-8.932-14.19-9.962-8.473-32.063-19.68-32.285-19.792l-0.142-0.072-0.138-0.082c-2.072-1.224-7.563-4.586-11.681-8.151-4.116 3.565-9.609 6.927-11.68 8.151m30.535 6.007c7.34 4.025 18.098 10.276 24.137 15.411 7.451 6.339 8.191 12.136 8.252 12.795v88.436c-10.206 0.954-21.162 1.614-32.389 1.967zm-70.099 116.64v-88.436c0.062-0.659 0.801-6.456 8.253-12.795 6.039-5.135 16.799-11.386 24.138-15.411v118.61c-11.228-0.353-22.183-1.013-32.391-1.967"/></clipPath><clipPath id="clipPath270"><path d="m274.1 193.38h116.02v-91.114h-116.02z"/></clipPath><clipPath id="clipPath286"><path d="M 0,310.484 H 436.478 V 0 H 0 Z"/></clipPath></defs><g transform="matrix(1.3333 0 0 -1.3333 0 300)"><g transform="matrix(1.5322 0 0 1.5322 -419.62 -163.48)"><g clip-path="url(#clipPath78)"><g clip-path="url(#clipPath86)" opacity=".050003"/></g><g clip-path="url(#clipPath102)"><g transform="translate(385.29 155.99)"><path d="m0 0c-0.043-0.641-0.688-7.177-8.933-14.19-9.962-8.473-32.062-19.68-32.284-19.792l-0.142-0.073-0.138-0.081c-2.071-1.224-7.564-4.587-11.681-8.151-4.116 3.564-9.609 6.927-11.68 8.151l-0.137 0.081-0.143 0.073c-0.221 0.112-22.333 11.328-32.284 19.792-8.245 7.013-8.89 13.549-8.933 14.19v90.271c16.399 1.6 34.68 2.442 53.177 2.442s36.78-0.842 53.178-2.442z" fill="#fff"/></g><g transform="translate(385.29 155.99)"><path d="m0 0c-0.043-0.641-0.687-7.178-8.933-14.19-9.962-8.473-32.062-19.68-32.284-19.792l-0.142-0.073-0.138-0.081c-2.071-1.224-7.564-4.587-11.681-8.151-4.116 3.564-9.609 6.927-11.68 8.151l-0.137 0.081-0.143 0.073c-0.221 0.112-22.333 11.328-32.284 19.792-8.245 7.012-8.89 13.549-8.933 14.19v90.271c16.399 1.6 34.68 2.442 53.177 2.442s36.78-0.842 53.178-2.442zm-53.178 97.547c-21.083 0-40.864-1.061-58.011-2.914v-94.739s0.121-8.824 10.635-17.767c10.515-8.943 33.236-20.425 33.236-20.425s11.522-6.808 14.14-10.998c2.619 4.19 14.141 10.998 14.141 10.998s22.722 11.482 33.236 20.425c10.515 8.943 10.636 17.767 10.636 17.767v94.739c-17.148 1.853-36.929 2.914-58.013 2.914" fill="#d9c066"/></g></g><path d="m350.96 127.86c7.34 4.025 18.098 10.276 24.137 15.411 7.451 6.339 8.191 12.136 8.252 12.795v88.436c-10.206 0.954-21.162 1.614-32.389 1.967zm-70.099 116.64v-88.436c0.062-0.659 0.801-6.456 8.253-12.795 6.039-5.135 16.799-11.386 24.138-15.411v118.61c-11.228-0.353-22.183-1.013-32.391-1.967" fill="url(#linearGradient236)"/><g clip-path="url(#clipPath246)"><g transform="translate(292.16 180.11)"><path d="m0 0v23.632h16.2v-3.998h-11.429v-5.594h9.866v-3.998h-9.866v-10.042z" fill="#fff"/></g><g transform="translate(329.54 199.75)"><path d="m0 0v-6.706h2.611c1.88 0 3.138 0.123 3.772 0.371 0.635 0.247 1.132 0.634 1.491 1.161 0.36 0.526 0.54 1.139 0.54 1.837 0 0.86-0.253 1.569-0.757 2.128-0.506 0.559-1.145 0.908-1.919 1.048-0.569 0.107-1.714 0.161-3.433 0.161zm-4.771-19.634v23.632h7.657c2.901 0 4.792-0.119 5.674-0.355 1.353-0.354 2.487-1.125 3.401-2.313 0.913-1.187 1.37-2.722 1.37-4.602 0-1.451-0.264-2.671-0.79-3.659-0.526-0.989-1.195-1.765-2.007-2.329-0.811-0.565-1.636-0.938-2.474-1.121-1.14-0.225-2.789-0.339-4.949-0.339h-3.111v-8.914z" fill="#c62828"/></g></g><g clip-path="url(#clipPath262)"><g clip-path="url(#clipPath270)" opacity=".050003"><g transform="translate(274.1 102.27)"><path d="m0 7.2747h116.02v83.84c-67.28-1.749-102.03-17.791-116.02-26.458z"/></g></g></g><g clip-path="url(#clipPath286)"><g transform="translate(358.7 180.11)"><path d="m0 0v23.632h16.2v-3.998h-11.429v-5.594h9.866v-3.998h-9.866v-10.042z" fill="#fff"/></g></g></g></g></svg>
